<?xml version="1.0" encoding="utf-8"?>
<!-- Generator: Adobe Illustrator 24.2.1, SVG Export Plug-In . SVG Version: 6.00 Build 0)  -->
<svg version="1.1" id="Capa_1" xmlns="http://www.w3.org/2000/svg" xmlns:xlink="http://www.w3.org/1999/xlink" x="0px" y="0px"
	 viewBox="0 0 65.7 62" style="enable-background:new 0 0 65.7 62;" xml:space="preserve">
<style type="text/css">
	.st0{fill:#002A3A;}
</style>
<g>
	<path class="st0" d="M26.7,28.5c0.6,0,1.1-0.3,1.3-1c0.3-0.8,0.3-1.6,0.1-2.4c-0.2-0.9-0.8-1.3-1.7-1.3c-1.8,0-3.7,0-5.5,0
		c-0.1,0-0.2,0-0.4,0c0,1.6,0,3.2,0,4.8C22.6,28.5,24.7,28.6,26.7,28.5z"/>
	<path class="st0" d="M44.4,29c-2.2-1.3-5.2,0.2-5.5,2.8c2.3,0,4.6,0,6.9,0C46,30.8,45.3,29.5,44.4,29z"/>
	<path class="st0" d="M26.4,31.8c-1.8,0-3.7,0-5.5,0c-0.1,0-0.2,0-0.4,0c0,1.9,0,3.8,0,5.7c2.1,0,4.2,0,6.2,0c1,0,1.7-0.5,2-1.5
		c0.2-0.7,0.2-1.4,0.1-2.1C28.7,32.6,27.8,31.8,26.4,31.8z"/>
	<path class="st0" d="M32.9,3.7c-15,0-27.2,12.2-27.2,27.2s12.2,27.2,27.2,27.2s27.2-12.2,27.2-27.2S47.9,3.7,32.9,3.7z M38,21.3
		c2.9,0,5.8,0,8.8,0c0,0.8,0,1.7,0,2.6c-2.9,0-5.8,0-8.8,0C38,23,38,22.2,38,21.3z M33.2,37.3c-0.6,1.9-1.9,3-3.8,3.6
		c-0.9,0.3-1.8,0.4-2.7,0.4c-3.6,0-7.2,0-10.8,0c-0.1,0-0.2,0-0.3,0c0-7.1,0-14.2,0-21.3c3.8,0,7.7,0,11.5,0c1.8,0,3.4,0.6,4.5,2.1
		c1.3,1.6,1.5,4.4,0.5,6.1c-0.5,0.8-1.2,1.2-2.1,1.5c-0.1,0-0.1,0-0.2,0c0,0-0.1,0-0.1,0.1c0.7,0.1,1.3,0.2,1.8,0.6
		c0.7,0.5,1.2,1.2,1.5,2C33.7,34,33.7,35.6,33.2,37.3z M50,34.7c-3.7,0-7.3,0-11,0c-0.1,1.5,0.6,3.1,2.5,3.6c1,0.2,2,0.2,3-0.1
		c0.9-0.3,1.4-0.9,1.6-1.8c0-0.1,0.1-0.1,0.2-0.2c0,0,0.1,0,0.2,0c1.1,0,2.2,0,3.4,0c0,0.7-0.1,1.4-0.3,2.1
		c-0.5,1.5-1.6,2.4-3.1,2.9c-2.6,1-5.3,0.9-7.9-0.1c-1.9-0.8-3.1-2.3-3.7-4.3c-0.9-2.8-0.5-5.4,1-7.9c1-1.7,2.6-2.8,4.5-3.2
		c1.8-0.4,3.7-0.4,5.5,0.3c1.7,0.6,2.8,1.8,3.5,3.4c0.4,1,0.7,2,0.7,3c0,0.1,0,0.2,0.1,0.3c0,0.6,0,1.2,0,1.7
		C50,34.5,50,34.6,50,34.7z"/>
</g>
</svg>
