<?xml version="1.0" encoding="utf-8"?>
<!-- Generator: Adobe Illustrator 24.2.1, SVG Export Plug-In . SVG Version: 6.00 Build 0)  -->
<svg version="1.1" id="Capa_1" xmlns="http://www.w3.org/2000/svg" xmlns:xlink="http://www.w3.org/1999/xlink" x="0px" y="0px"
	 viewBox="0 0 65.7 62" style="enable-background:new 0 0 65.7 62;" xml:space="preserve">
<style type="text/css">
	.st0{fill:#002A3A;}
</style>
<g>
	<path class="st0" d="M45.9,21.8c-0.9-2.6-3.1-4.2-5.9-4.2c-4.7,0-9.5,0-14.2,0c-0.7,0-1.5,0.1-2.1,0.3c-2.6,0.9-4.2,3.1-4.2,5.9
		c0,4.8,0,9.5,0,14.3c0,2.1,0.9,3.8,2.6,5.1c1.1,0.8,2.4,1.1,3.7,1.1c2.4,0,4.7,0,7.1,0s4.7,0,7.1,0c0.7,0,1.5-0.1,2.2-0.3
		c2.6-0.9,4.1-3.2,4.1-6c0-4.7,0-9.5,0-14.2C46.2,23.2,46.1,22.5,45.9,21.8z M32.9,39.4c-4.6,0-8.4-3.8-8.4-8.4s3.8-8.4,8.4-8.4
		s8.4,3.8,8.4,8.4C41.3,35.6,37.5,39.4,32.9,39.4z M41.5,24.4c-1.1,0-2.1-1-2-2.1c0-1.2,1-2.1,2.2-2.1s2.1,1,2.1,2.1
		C43.7,23.5,42.7,24.4,41.5,24.4z"/>
	<path class="st0" d="M32.9,25.5c-3,0-5.5,2.5-5.5,5.5s2.5,5.5,5.5,5.5s5.5-2.5,5.5-5.5S35.9,25.5,32.9,25.5z"/>
	<path class="st0" d="M32.9,3.8C17.8,3.8,5.7,16,5.7,31s12.2,27.2,27.2,27.2S60.1,46,60.1,31S47.9,3.8,32.9,3.8z M49.1,38.9
		c-0.1,0.3-0.1,0.7-0.2,1c-0.8,3.7-3.1,6.1-6.7,7.1c-0.5,0.1-1,0.2-1.5,0.3c-5.3,0-10.6,0-15.9,0c-0.3-0.1-0.7-0.1-1-0.2
		c-3.7-0.8-6.1-3.1-7.1-6.7c-0.1-0.5-0.2-1-0.3-1.5c0-5.3,0-10.6,0-15.9c0.1-0.3,0.1-0.7,0.2-1c0.8-3.7,3.1-6.1,6.7-7.1
		c0.5-0.1,1-0.2,1.5-0.3c5.3,0,10.6,0,15.9,0c0.3,0.1,0.7,0.1,1,0.2c3.7,0.8,6.1,3.1,7.1,6.7c0.1,0.5,0.2,1,0.3,1.5
		C49.1,28.4,49.1,33.7,49.1,38.9z"/>
</g>
</svg>
