<?xml version="1.0" encoding="utf-8"?>
<!-- Generator: Adobe Illustrator 24.2.1, SVG Export Plug-In . SVG Version: 6.00 Build 0)  -->
<svg version="1.1" id="Capa_1" xmlns="http://www.w3.org/2000/svg" xmlns:xlink="http://www.w3.org/1999/xlink" x="0px" y="0px"
	 viewBox="0 0 300 73" style="enable-background:new 0 0 300 73;" xml:space="preserve">
<style type="text/css">
	.st0{fill:#F8FAFD;}
	.st1{fill:#E9BB54;}
</style>
<g>
	<g>
		<g>
			<g>
				<path class="st0" d="M55.7,32.4c0-12.7-12.3-13.1-12.3-13.1h-3.6c-0.5,0.2-9.2,2.7-9.2,9.2c0,0.1,0,0.2,0,0.2
					c2.5,0,9.4,0,12.2,0c3.4,0,3.5,3.2,3.5,3.2c0,3-3.1,3.1-3.1,3.1h-2.5c-8.2,0-8.6,9.5-8.6,9.5h11.3
					C56.2,43.6,55.7,32.4,55.7,32.4z"/>
			</g>
			<g>
				<g>
					<path class="st1" d="M28,19.3c-10.8,0-10.1,10.6-10.1,10.6V54c10.1-0.6,9.6-10.6,9.6-10.6s0-7.9,0-14.6c0-0.1,0-0.2,0-0.2
						c0-6.5,7-9.1,7.5-9.2l0,0L28,19.3z"/>
				</g>
			</g>
		</g>
		<g>
			<path class="st1" d="M36.4,70.4c-4.6,0-9-0.9-13.2-2.7c-4-1.7-7.7-4.2-10.8-7.3s-5.6-6.7-7.3-10.8C3.3,45.4,2.4,41,2.4,36.4
				s0.9-9,2.7-13.2c1.7-4,4.2-7.7,7.3-10.8s6.7-5.6,10.8-7.3c4.2-1.8,8.6-2.7,13.2-2.7s9,0.9,13.2,2.7c4,1.7,7.7,4.2,10.8,7.3
				s5.6,6.7,7.3,10.8c1.8,4.2,2.7,8.6,2.7,13.2s-0.9,9-2.7,13.2c-1.7,4-4.2,7.7-7.3,10.8s-6.7,5.6-10.8,7.3
				C45.4,69.5,40.9,70.4,36.4,70.4z M36.4,5.9c-4.1,0-8.2,0.8-11.9,2.4c-3.6,1.5-6.9,3.8-9.7,6.6s-5,6.1-6.6,9.7
				c-1.6,3.8-2.4,7.8-2.4,11.9s0.8,8.2,2.4,11.9c1.5,3.6,3.8,6.9,6.6,9.7s6.1,5,9.7,6.6c3.8,1.6,7.8,2.4,11.9,2.4s8.2-0.8,11.9-2.4
				c3.6-1.5,6.9-3.8,9.7-6.6s5-6.1,6.6-9.7c1.6-3.8,2.4-7.8,2.4-11.9s-0.8-8.2-2.4-11.9c-1.5-3.6-3.8-6.9-6.6-9.7s-6.1-5-9.7-6.6
				C44.5,6.7,40.5,5.9,36.4,5.9z"/>
		</g>
	</g>
	<g>
		<g>
			<path class="st1" d="M84.7,43.5V27.6h1.1v14.8h8.9v1.1H84.7z"/>
			<path class="st1" d="M101.9,43.6c-0.8,0-1.6-0.2-2.3-0.5c-0.7-0.3-1.4-0.8-2-1.4c-0.6-0.6-1-1.2-1.3-2c-0.3-0.7-0.5-1.5-0.5-2.4
				v-9.9H97v9.9c0,0.7,0.1,1.3,0.4,2c0.3,0.6,0.6,1.2,1.1,1.6c0.5,0.5,1,0.8,1.6,1.1s1.2,0.4,1.9,0.4c0.7,0,1.3-0.1,1.9-0.4
				c0.6-0.3,1.1-0.6,1.6-1.1s0.8-1,1.1-1.6c0.3-0.6,0.4-1.3,0.4-2v-9.9h1.1v9.9c0,0.8-0.2,1.6-0.5,2.4c-0.3,0.7-0.7,1.4-1.3,2
				c-0.6,0.6-1.2,1-2,1.4C103.5,43.5,102.8,43.6,101.9,43.6z"/>
			<path class="st1" d="M117.2,43.6c-1.5,0-2.8-0.4-4-1.1c-1.2-0.7-2.2-1.7-2.9-3c-0.7-1.2-1.1-2.6-1.1-4.1s0.4-2.8,1.1-4.1
				c0.7-1.2,1.7-2.2,2.9-3c1.2-0.7,2.6-1.1,4-1.1c1.1,0,2.2,0.2,3.2,0.7s1.9,1.1,2.7,2l-0.9,0.8c-0.7-0.7-1.4-1.3-2.3-1.7
				c-0.9-0.4-1.8-0.6-2.8-0.6c-1.3,0-2.4,0.3-3.5,0.9s-1.9,1.5-2.5,2.6s-0.9,2.2-0.9,3.5c0,1.3,0.3,2.4,0.9,3.5s1.5,1.9,2.5,2.6
				c1.1,0.6,2.2,0.9,3.5,0.9c1,0,2-0.2,3-0.7c0.9-0.5,1.7-1.1,2.4-1.9l0.9,0.7c-0.8,1-1.7,1.7-2.8,2.2
				C119.6,43.4,118.4,43.6,117.2,43.6z"/>
			<path class="st1" d="M126.4,39.4l-1.9,4h-1.2l7.5-16.1l7.1,16.1h-1.2l-1.8-4H126.4z M130.8,30.1l-3.8,8.2h7.5L130.8,30.1z"/>
			<path class="st1" d="M148.8,37.3c0.4,0.6,0.6,1.3,0.6,2c0,0.6-0.1,1.2-0.4,1.7c-0.3,0.5-0.7,1-1.3,1.4c-1.1,0.8-2.5,1.2-4,1.2
				c-0.7,0-1.5-0.1-2.2-0.3s-1.3-0.5-1.8-0.9c-0.9-0.7-1.5-1.5-1.7-2.5l1.1-0.6c0,0.9,0.5,1.6,1.3,2.2c0.4,0.3,0.9,0.6,1.5,0.7
				c0.6,0.2,1.2,0.3,1.8,0.3c1.3,0,2.4-0.3,3.3-1c0.9-0.6,1.3-1.4,1.3-2.2c0-0.5-0.2-1-0.5-1.4s-0.8-0.8-1.3-1.1s-1.5-0.5-2.9-0.7
				c-0.1,0-0.5-0.1-1.2-0.2c-0.7-0.1-1.3-0.3-1.8-0.5c-0.8-0.4-1.4-0.9-1.9-1.6c-0.5-0.6-0.7-1.3-0.7-2.1c0-0.6,0.2-1.2,0.5-1.7
				s0.7-1,1.3-1.4c0.5-0.4,1.1-0.7,1.8-0.9c0.7-0.2,1.4-0.3,2.2-0.3c1.5,0,2.8,0.4,4,1.2c0.9,0.7,1.5,1.5,1.7,2.5l-1.1,0.6
				c0-0.4-0.1-0.8-0.4-1.2c-0.2-0.4-0.5-0.7-0.9-1s-0.9-0.6-1.5-0.7c-0.6-0.2-1.2-0.3-1.8-0.3s-1.2,0.1-1.8,0.3
				c-0.6,0.2-1.1,0.4-1.5,0.7c-0.4,0.3-0.7,0.7-1,1c-0.2,0.4-0.3,0.8-0.3,1.2c0,0.5,0.2,1,0.6,1.5c0.4,0.5,0.8,0.9,1.4,1.2
				c0.3,0.2,0.7,0.3,1.1,0.4c0.4,0.1,0.9,0.2,1.6,0.2c0.1,0,0.4,0.1,0.9,0.1c0.5,0.1,0.9,0.2,1.3,0.3c0.4,0.1,0.8,0.3,1.1,0.4
				C147.8,36.2,148.4,36.7,148.8,37.3z"/>
		</g>
		<g>
			<g>
				<g>
					<g>
						<path class="st0" d="M175.1,27.3v16.3h-3.9V27.3H175.1z"/>
					</g>
					<g>
						<path class="st0" d="M180.7,40.1h7.5v3.5h-11.4V27.3h11.4v3.5h-7.5v2.9h6.4v3.5h-6.4V40.1z"/>
					</g>
					<g>
						<path class="st0" d="M207.5,27.3v16.3h-3.9v-9.1l-4.8,3.1l-4.7-3.1v9.1h-3.9V27.3l8.7,5.6L207.5,27.3z"/>
					</g>
					<g>
						<path class="st0" d="M226,35.8c0,4.6-3.8,8.4-8.4,8.4c-4.6,0-8.4-3.8-8.4-8.4s3.8-8.4,8.4-8.4C222.2,27.4,226,31.2,226,35.8z
							 M222.5,35.8c0-1.3-0.5-2.5-1.4-3.5c-0.9-0.9-2.2-1.4-3.5-1.4s-2.5,0.5-3.5,1.4c-0.9,0.9-1.4,2.2-1.4,3.5s0.5,2.5,1.4,3.5
							c0.9,0.9,2.2,1.4,3.5,1.4s2.5-0.5,3.5-1.4C222,38.3,222.5,37.1,222.5,35.8z"/>
					</g>
					<g>
						<path class="st0" d="M242.2,27.3v16.3l-10.8-8v8h-3.9V27.3l10.8,8.3v-8.3H242.2z"/>
					</g>
					<g>
						<path class="st0" d="M252.2,31.2v12.4h-3.9V31.2h-4.2v-3.9h12.4v3.9H252.2z"/>
					</g>
					<g>
						<path class="st0" d="M262.2,40.1h7.5v3.5h-11.4V27.3h11.4v3.5h-7.5v2.9h6.4v3.5h-6.4V40.1z"/>
					</g>
					<g>
						<path class="st0" d="M274.5,43.2c-0.8-0.3-1.5-0.8-2.1-1.3c-1.9-1.8-1.7-4.1-1.7-4.3l3.4,0.1l0,0c0,0,0,0.9,0.4,1.5
							c0.5,0.8,1.4,1.1,2.8,1.1c2.3,0,3.3-0.6,3.3-1.5c0-1-1.3-1.6-3.4-1.9c-1.3-0.2-2.4-0.4-3.3-0.8c-0.9-0.4-1.6-0.8-2.1-1.4
							c-0.8-0.8-1.1-1.8-1.1-2.9c0-1.5,0.6-2.6,1.1-3.2c1.2-1.3,3-2,5.6-2c3.4,0,5,1.5,5.8,2.7c0.9,1.3,0.9,2.9,0.9,3.1h-3.4l0,0
							c0,0,0-0.8-0.4-1.3c-0.5-0.7-1.5-1.1-2.9-1.1c-1.5,0-3.1,0.4-3.1,1.5s1.1,1.7,3.3,1.9c2.5,0.3,4.3,1.1,5.4,2.3
							c0.7,0.9,1.1,1.9,1.1,2.9c0,0.5,0,1.9-1.1,3.1c-0.6,0.6-1.3,1.1-2.2,1.4c-1,0.3-2.1,0.5-3.5,0.5
							C276.3,43.7,275.4,43.5,274.5,43.2z"/>
					</g>
					<g>
						<path class="st0" d="M289.6,40.1h7.5v3.5h-11.4V27.3h11.4v3.5h-7.5v2.9h6.4v3.5h-6.4V40.1z"/>
					</g>
				</g>
			</g>
			<g>
				<g>
					<path class="st0" d="M159.9,39L159.9,39v-0.2v-0.4l0,0v1C159.8,39.3,159.9,39.1,159.9,39z"/>
				</g>
				<g>
					<path class="st0" d="M163.8,27.3c-2.3,0-3.4,0-3.9,0H156v11.1v5c0.4,0.1,3.8,0.7,3.9-4.1v-1l0,0v-3.5l0,0v-4.1h3.9
						c0.8,0,1.4,0.2,1.8,0.7c0.4,0.4,0.5,1,0.5,1.4s-0.1,1-0.5,1.4c-0.2,0.2-0.4,0.3-0.6,0.4c-0.4,0.2-0.8,0.2-1.3,0.2h-0.5
						c-1.4,0.1-1.7,1.3-1.8,2.1v0.6v0.8c0.7,0,1.5,0,2.3,0c4.3,0,5.9-3.2,5.9-5.5C169.6,30.4,167.8,27.3,163.8,27.3z"/>
				</g>
			</g>
		</g>
	</g>
</g>
</svg>
