<?xml version="1.0" encoding="utf-8"?>
<!-- Generator: Adobe Illustrator 24.2.1, SVG Export Plug-In . SVG Version: 6.00 Build 0)  -->
<svg version="1.1" id="Capa_1" xmlns="http://www.w3.org/2000/svg" xmlns:xlink="http://www.w3.org/1999/xlink" x="0px" y="0px"
	 viewBox="0 0 100 100" style="enable-background:new 0 0 100 100;" xml:space="preserve">
<style type="text/css">
	.st0{fill:#002A3A;}
</style>
<g>
	<path class="st0" d="M48,25.4c9.6,0,16.6,2.4,23.1,6.2c7.1,4.2,13.3,9.5,18.6,15.8c1.5,1.8,1.5,3.4,0,5.2c-6.5,7.6-14,13.8-23,18.1
		c-5.7,2.7-11.7,4.2-18,3.9c-6.2-0.2-12-2-17.4-4.9c-8.2-4.3-15.1-10.2-21.1-17.2c-1.4-1.6-1.5-3.3-0.2-4.8
		c7.3-8.6,15.9-15.6,26.5-19.8C40.9,26.3,45.4,25.4,48,25.4z M50,66.8c9.2,0,16.8-7.6,16.8-16.8c0-9.3-7.6-16.9-16.9-16.8
		c-9.3,0-16.8,7.6-16.8,16.9C33.2,59.3,40.8,66.8,50,66.8z M71.9,59.6c0.3-0.2,0.7-0.4,1-0.7c3.1-2.7,6.2-5.5,9.3-8.2
		c0.6-0.5,0.6-0.9,0-1.5c-3-3.1-6.3-6.1-9.8-8.6c-0.2-0.1-0.4-0.2-0.7-0.4C74.4,46.8,74.3,53.1,71.9,59.6z M28.2,40.4
		c-4.1,2.8-7.7,5.9-11,9.6c3.4,3.6,6.9,6.9,11,9.6C25.7,53.2,25.7,46.8,28.2,40.4z"/>
	<path class="st0" d="M39.8,46.6c1.3,2.6,3.3,3.9,6.1,3.4c2.2-0.4,3.9-2,4.3-4.1c0.5-2.7-0.6-4.8-3.1-6.1c3.1-1.3,8.5-0.3,11.5,3.8
		c3,4,2.8,9.8-0.5,13.5C54.6,61,49,62,44.6,59.4S38.2,51.6,39.8,46.6z"/>
</g>
</svg>
