<?xml version="1.0" encoding="utf-8"?>
<!-- Generator: Adobe Illustrator 24.2.1, SVG Export Plug-In . SVG Version: 6.00 Build 0)  -->
<svg version="1.1" id="Capa_1" xmlns="http://www.w3.org/2000/svg" xmlns:xlink="http://www.w3.org/1999/xlink" x="0px" y="0px"
	 viewBox="0 0 100 100" style="enable-background:new 0 0 100 100;" xml:space="preserve">
<style type="text/css">
	.st0{fill:#002A3A;}
</style>
<path class="st0" d="M49.9,77.5c-10,0-20.1-0.1-30.1,0c-5.3,0.1-9.8-4.3-9.8-9.7c0.1-11.9,0-23.9,0-35.8c0-5.4,4-9.5,9.5-9.5
	c6.5,0,13,0,19.5,0c13.7,0,27.4,0,41.1-0.1c4.9,0,8.5,3.2,9.5,7.2c0.2,0.7,0.3,1.5,0.3,2.3c0,12.1,0,24.1,0,36.2
	c0,5.3-4,9.4-9.3,9.4C70.4,77.5,60.2,77.5,49.9,77.5z M15.5,30.9c0,0.6-0.1,1-0.1,1.4c0,5,0,10.1,0,15.1c0,6.8,0.1,13.5,0,20.3
	c0,2.7,1.8,4.7,4.6,4.7c14.4-0.1,28.7,0,43.1,0c5.7,0,11.5,0,17.2,0c2.6,0,4.3-1.7,4.3-4.3c0-11.9,0-23.9,0-35.8
	c0-0.3,0-0.6-0.1-1.2c-0.4,0.3-0.7,0.5-1,0.7c-2.9,2.3-5.8,4.7-8.7,7c-4.2,3.4-8.4,6.8-12.6,10.2c-2.7,2.2-5.4,4.4-8.2,6.5
	c-2.5,1.9-5.7,1.9-8.2-0.1c-2.3-1.8-4.5-3.6-6.8-5.4c-5.3-4.3-10.6-8.5-15.9-12.8C20.7,35,18.2,33,15.5,30.9z M20.3,27.8
	c0.3,0.3,0.4,0.5,0.6,0.6c3.8,3,7.6,6,11.4,9.1C37.9,42,43.5,46.4,49,50.9c0.9,0.7,1.3,0.7,2.2,0c4-3.2,8.1-6.4,12.1-9.7
	c4.3-3.5,8.7-7,13-10.4c1.2-1,2.4-1.9,3.7-3C59.9,27.8,40.2,27.8,20.3,27.8z"/>
</svg>
