<?xml version="1.0" encoding="utf-8"?>
<!-- Generator: Adobe Illustrator 24.2.1, SVG Export Plug-In . SVG Version: 6.00 Build 0)  -->
<svg version="1.1" id="Capa_1" xmlns="http://www.w3.org/2000/svg" xmlns:xlink="http://www.w3.org/1999/xlink" x="0px" y="0px"
	 viewBox="0 0 100 100" style="enable-background:new 0 0 100 100;" xml:space="preserve">
<style type="text/css">
	.st0{fill:#002A3A;}
</style>
<g>
	<path class="st0" d="M19,81.1c0.7-2.5,1.3-4.9,2-7.3c0.7-2.7,1.5-5.4,2.2-8.1c0.1-0.3,0-0.8-0.1-1.1c-6.3-11.7-4.8-25.5,4-35.4
		C34,21.5,42.8,18,53.1,19c13.7,1.3,24.6,11.3,27.3,24.8C83.5,59.4,74,75,58.7,79.4c-7.9,2.3-15.5,1.5-22.9-2.2
		C35.5,77,35,77,34.7,77.1c-5.1,1.3-10.1,2.7-15.2,4C19.4,81,19.3,81.1,19,81.1z M26.4,73.8c3-0.8,5.8-1.5,8.7-2.3
		c0.8-0.2,1.4-0.1,2,0.3C42.5,75,48.4,76,54.6,75c14.5-2.5,24-17.2,20.4-31.5c-3.7-14.6-18.8-22.8-33.1-18.1
		C26.6,30.5,19.7,48.8,28,62.6c0.8,1.3,1,2.3,0.5,3.8C27.7,68.8,27.1,71.2,26.4,73.8z"/>
	<path class="st0" d="M40.2,35.5c1.3-0.3,1.9,0.5,2.4,1.7c0.7,1.8,1.4,3.6,2.2,5.3c0.3,0.6,0.3,1.2-0.1,1.7
		c-0.5,0.8-1.1,1.5-1.7,2.3c-0.7,0.8-0.7,1.1-0.2,1.9c2.5,4.1,5.9,7.1,10.4,8.9c0.7,0.3,1.2,0.2,1.7-0.4c0.7-0.9,1.5-1.8,2.2-2.7
		c0.6-0.8,1-0.9,1.8-0.5c2.1,1,4.3,2,6.4,3.1c0.3,0.1,0.5,0.6,0.5,0.9c0.1,3-1.3,5.1-4.4,6.3c-1.9,0.8-3.8,0.7-5.8,0.2
		c-7.1-1.9-12.5-6.1-16.9-11.9c-1.6-2.2-3.2-4.4-3.9-7c-0.9-3.5,0-6.4,2.5-9C38,35.5,39,35.4,40.2,35.5z"/>
</g>
</svg>
